<svg width="118" height="29" viewBox="0 0 118 29" fill="none" xmlns="http://www.w3.org/2000/svg">
<path d="M116.534 23.9648C117.598 23.67 118.222 22.568 117.927 21.5035L113.123 4.15662C112.828 3.09213 111.726 2.4682 110.661 2.76305C109.597 3.05789 108.973 4.15985 109.268 5.22434L113.539 20.6438L98.1193 24.9147C97.0548 25.2095 96.4308 26.3115 96.7257 27.376C97.0205 28.4405 98.1225 29.0644 99.187 28.7695L116.534 23.9648ZM2 22.0374L3.07443 23.7243C24.5038 10.0752 41.1567 3.8178 57.9762 4.00405C74.8355 4.19074 92.1845 10.8515 115.015 23.7778L116 22.0374L116.985 20.297C93.999 7.28217 75.9207 0.202509 58.0205 0.00429163C40.0804 -0.194367 22.6416 6.51882 0.925566 20.3505L2 22.0374Z" fill="#2752B5"/>
</svg>
