<svg width="387" height="169" viewBox="0 0 387 169" fill="none" xmlns="http://www.w3.org/2000/svg">
<g clip-path="url(#clip0_20_97)">
<path d="M28.2321 79.8411L30.3989 77.9018C32.1387 79.8456 33.4209 81.9421 34.2455 84.1911C35.072 86.4064 35.3813 88.7795 35.1733 91.3104C34.9494 93.8234 34.1379 96.5413 32.7387 99.4638L30.1843 98.763C31.4615 96.2066 32.2275 93.8507 32.4825 91.6953C32.7393 89.5061 32.5456 87.4953 31.9013 85.663C31.2589 83.7969 30.2273 82.0703 28.8067 80.4831L28.2321 79.8411ZM20.9829 86.3296L28.9811 79.1707L30.6092 80.9897L22.611 88.1486L20.9829 86.3296ZM31.9447 84.4197L33.3334 85.9711L26.2646 93.7917L24.2648 92.2572L31.9447 84.4197ZM36.5058 69.5449L38.619 67.6535L51.3565 81.8844L49.2433 83.7759L36.5058 69.5449ZM38.1395 79.0677L42.687 74.9975L44.339 76.8432L39.7915 80.9135L38.1395 79.0677ZM31.6163 74.7403L33.7296 72.8489L45.8924 86.4378L43.7792 88.3293L31.6163 74.7403ZM36.4966 97.2566L52.3861 83.0347L59.9759 91.5144L44.0864 105.736L36.4966 97.2566ZM51.8235 86.7663L40.2942 97.0856L44.6518 101.954L56.181 91.6348L51.8235 86.7663Z" fill="#2752B5"/>
<path d="M68.365 51.8862L85.6743 47.2708L86.3032 49.6295L68.9939 54.245L68.365 51.8862ZM73.1353 72.4238L72.1756 70.0789C74.0195 69.5625 76.0252 69.0029 78.1928 68.4001C80.3774 67.7681 82.5874 67.0921 84.8229 66.3722C87.0583 65.6523 89.1859 64.8992 91.2055 64.113L91.9431 66.1827C89.9251 67.0676 87.8075 67.9047 85.5906 68.694C83.3906 69.454 81.2214 70.1438 79.0831 70.7635C76.9448 71.3832 74.9622 71.9367 73.1353 72.4238ZM72.021 52.9176L74.8308 52.1685L79.2797 68.8534L76.47 69.6026L72.021 52.9176ZM79.8605 50.8273L82.6356 50.0873L87.0845 66.7723L84.3095 67.5122L79.8605 50.8273ZM89.7213 42.662L92.5657 41.9035L100.936 73.2962L98.092 74.0547L89.7213 42.662ZM86.8743 56.0907L94.8179 53.9726L95.4468 56.3314L87.5033 58.4495L86.8743 56.0907Z" fill="#2752B5"/>
<path d="M138.913 42.4494L141.48 42.9784L140.972 45.4396C140.687 46.8226 140.171 48.0846 139.422 49.2255C138.697 50.3712 137.802 51.3963 136.736 52.3006C135.698 53.1863 134.541 53.9376 133.266 54.5544C132.014 55.176 130.706 55.6518 129.343 55.9818C128.003 56.3166 126.669 56.5059 125.34 56.5498L124.539 53.8555C125.689 53.8482 126.866 53.7119 128.069 53.4467C129.296 53.1864 130.474 52.806 131.603 52.3057C132.737 51.782 133.771 51.152 134.705 50.4159C135.662 49.6846 136.456 48.8584 137.085 47.9374C137.743 46.9978 138.183 45.9889 138.406 44.9106L138.913 42.4494ZM139.475 42.5653L141.972 43.0798L141.465 45.5411C141.242 46.6194 141.248 47.7201 141.48 48.8433C141.718 49.943 142.12 51.0156 142.687 52.0609C143.277 53.1111 143.989 54.1009 144.824 55.0305C145.663 55.9366 146.581 56.7611 147.576 57.5038C148.6 58.228 149.653 58.8115 150.734 59.2544L148.898 61.4051C147.695 60.8395 146.545 60.1381 145.446 59.3008C144.348 58.4636 143.335 57.5095 142.408 56.4386C141.503 55.3725 140.738 54.2251 140.111 52.9963C139.49 51.7441 139.073 50.4485 138.86 49.1095C138.647 47.7706 138.683 46.4096 138.968 45.0266L139.475 42.5653ZM121.46 62.751L150.292 68.6933L149.792 71.1194L120.96 65.1771L121.46 62.751Z" fill="#2752B5"/>
<path d="M172.605 72.8276L174.598 74.4162C176.151 75.6543 177.589 76.7692 178.91 77.761C180.231 78.7528 181.536 79.6699 182.823 80.5123C184.129 81.3696 185.508 82.1931 186.96 82.9828L185.663 85.0709C184.192 84.2662 182.787 83.4372 181.448 82.5837C180.123 81.7115 178.781 80.7646 177.422 79.7429C176.082 78.7362 174.626 77.6063 173.054 76.3533L171.061 74.7647L172.605 72.8276ZM184.598 57.7797L196.417 67.1995L194.873 69.1366L185.384 61.5739L174.398 75.3585L172.068 73.5014L184.598 57.7797ZM180.655 66.2978L190.172 73.8829L188.673 75.7639L179.156 68.1788L180.655 66.2978ZM202.519 68.2984L204.849 70.1555L184.6 95.5629L182.27 93.7058L202.519 68.2984ZM196.194 79.9214L200.882 83.658L199.316 85.6232L194.628 81.8866L196.194 79.9214Z" fill="#2752B5"/>
<path d="M358.391 25.8012C361.599 26.558 364.206 29.148 365.391 32.3481C366.406 32.1565 367.491 32.1731 368.602 32.4353C372.742 33.4118 375.881 37.439 376.256 41.8924C377.473 43.6523 378.123 45.8651 377.906 48.0952C377.481 52.4707 373.888 55.2515 369.881 54.3068C368.589 54.002 367.413 53.3453 366.425 52.4505C364.758 53.605 362.647 54.0512 360.429 53.528C357.698 52.8838 355.404 50.9114 354.05 48.3656C352.437 49.3631 350.453 49.7243 348.374 49.2341C343.651 48.1201 340.228 43.035 340.73 37.8762C341.21 32.9391 345.111 29.7262 349.585 30.4356C351.038 26.89 354.554 24.8963 358.391 25.8012Z" fill="#258ACB" fill-opacity="0.23"/>
<path d="M332.141 26.0741C337.887 25.527 343.364 30.2917 344.375 36.7165C344.697 38.7617 344.524 40.7277 343.958 42.4765C346.388 44.3595 348.194 47.2736 348.728 50.6623C349.715 56.9426 345.963 62.4677 340.347 63.0027C335.908 63.4254 331.635 60.604 329.55 56.3025C328.208 57.6057 326.475 58.4585 324.494 58.6472C320.96 58.9836 317.54 57.1213 315.396 54.0794C314.133 55.1308 312.583 55.8151 310.837 55.9813C305.581 56.4818 300.571 52.1237 299.647 46.247C298.722 40.3701 302.234 35.1996 307.489 34.6991C308.289 34.6229 309.083 34.6614 309.858 34.7985C310.962 31.3597 313.737 28.8363 317.329 28.4942C320.041 28.2358 322.687 29.2738 324.741 31.1448C326.236 28.339 328.881 26.3845 332.141 26.0741Z" fill="#99C9F3" fill-opacity="0.96"/>
<rect x="349.764" y="119.498" width="6.45719" height="17.7964" transform="rotate(18.9709 349.764 119.498)" fill="#C4B29E"/>
<path d="M367.325 88.3618C371.232 89.7052 373.26 94.3557 372.306 99.2245C372.649 99.2799 372.989 99.3633 373.325 99.4787C377.277 100.837 379.106 105.937 377.411 110.869C377.253 111.33 377.069 111.773 376.863 112.196C379.469 114.008 380.517 117.971 379.193 121.824C377.76 125.991 374.058 128.554 370.66 127.887C368.24 130.946 364.622 132.421 361.382 131.307C359.574 130.686 358.17 129.356 357.275 127.625C355.015 128.314 352.654 128.342 350.41 127.571C349.557 127.278 348.761 126.882 348.027 126.399C347.481 126.427 346.934 126.357 346.402 126.175C344.978 125.685 343.952 124.494 343.46 122.983C341.8 123.478 340.071 123.495 338.426 122.93C333.396 121.201 331.068 114.71 333.226 108.433C334.135 105.789 335.696 103.607 337.573 102.093C337.646 101.817 337.729 101.54 337.824 101.264C338.73 98.6273 340.446 96.5615 342.453 95.3938C342.584 94.5154 342.796 93.627 343.1 92.7432C345.258 86.4663 351.084 82.7793 356.114 84.5081C358.332 85.2705 360.024 86.9593 361.038 89.147C363.012 87.9976 365.247 87.6475 367.325 88.3618Z" fill="#60B494"/>
<path d="M0.0429909 154.982C194.045 49.9948 390.048 153.995 390.048 153.995" stroke="#71A2EB"/>
<g clip-path="url(#clip1_20_97)">
<path d="M318.897 98.7944L302.224 89.1873L297.22 78.4345L297.056 78.1323C296.652 77.5278 296.096 76.9967 295.429 76.5784C294.761 76.1601 294 75.8652 293.201 75.7155L271.861 71.7296C270.981 71.5628 270.08 71.5772 269.239 71.7715C268.399 71.9658 267.644 72.3339 267.043 72.843L255.914 82.3245L249.352 81.0988C248.645 80.9666 247.923 81.0702 247.346 81.3867C246.769 81.7033 246.385 82.2068 246.276 82.7865L242.601 102.461C242.493 103.04 242.67 103.649 243.094 104.152C243.518 104.656 244.153 105.013 244.861 105.145L250.569 106.211C250.837 108.178 251.873 110.064 253.516 111.577C255.159 113.091 257.318 114.148 259.66 114.585C262.003 115.023 264.398 114.816 266.477 113.998C268.555 113.18 270.202 111.795 271.162 110.058L287.913 113.187C288.182 115.154 289.217 117.039 290.86 118.553C292.503 120.066 294.663 121.123 297.005 121.561C299.347 121.998 301.742 121.792 303.821 120.974C305.9 120.155 307.546 118.771 308.506 117.033L314.215 118.099C314.922 118.231 315.644 118.128 316.22 117.811C316.797 117.495 317.182 116.991 317.29 116.411L320.149 101.109C320.228 100.68 320.152 100.232 319.93 99.8202C319.707 99.4086 319.348 99.0518 318.897 98.7944ZM260.457 110.32C259.402 110.123 258.418 109.674 257.631 109.03C256.843 108.386 256.287 107.575 256.032 106.701C255.778 105.826 255.836 104.928 256.201 104.118C256.565 103.308 257.218 102.624 258.079 102.152C258.939 101.68 259.967 101.441 261.034 101.466C262.1 101.491 263.157 101.777 264.07 102.29C264.983 102.803 265.711 103.519 266.163 104.348C266.615 105.176 266.77 106.08 266.609 106.945C266.392 108.104 265.622 109.111 264.469 109.744C263.315 110.377 261.872 110.585 260.457 110.32ZM297.802 117.296C296.746 117.099 295.763 116.65 294.975 116.005C294.188 115.361 293.631 114.551 293.377 113.676C293.122 112.802 293.181 111.903 293.545 111.093C293.909 110.284 294.563 109.6 295.423 109.128C296.284 108.656 297.312 108.417 298.378 108.441C299.445 108.466 300.501 108.753 301.414 109.266C302.327 109.779 303.056 110.495 303.508 111.323C303.96 112.152 304.115 113.056 303.953 113.92C303.736 115.08 302.967 116.087 301.813 116.72C300.659 117.353 299.216 117.56 297.802 117.296ZM312.364 113.229L309.323 112.661C309.055 110.694 308.019 108.808 306.376 107.295C304.733 105.781 302.574 104.724 300.231 104.287C297.889 103.849 295.494 104.056 293.415 104.874C291.337 105.692 289.69 107.077 288.73 108.815L271.978 105.686C271.71 103.718 270.675 101.833 269.032 100.319C267.389 98.8059 265.229 97.7489 262.887 97.3114C260.545 96.8739 258.149 97.0802 256.071 97.8984C253.992 98.7167 252.346 100.101 251.386 101.839L248.345 101.271L251.203 85.969L256.538 86.9655C256.978 87.0457 257.426 87.0357 257.845 86.9362C258.263 86.8367 258.638 86.651 258.936 86.3954L271.098 76.1115L292.438 80.0975L297.616 91.2449C297.826 91.7072 298.205 92.1114 298.698 92.3972L314.544 101.556L312.364 113.229Z" fill="#F7AE6E"/>
</g>
</g>
<defs>
<clipPath id="clip0_20_97">
<rect width="390" height="169" fill="white" transform="translate(-3)"/>
</clipPath>
<clipPath id="clip1_20_97">
<rect width="86.8351" height="71.162" fill="white" transform="translate(247.066 49) rotate(10.5802)"/>
</clipPath>
</defs>
</svg>
